<?xml version="1.0" encoding="UTF-8"?>
<svg id="Layer_2" data-name="Layer 2" xmlns="http://www.w3.org/2000/svg" viewBox="0 0 500 500">
  <defs>
    <style>
      .cls-1 {
        fill: #fff;
      }

      .cls-2 {
        fill: #e8ad51;
      }

      .cls-3 {
        fill: #940807;
      }
    </style>
  </defs>
  <g id="Layer_1-2" data-name="Layer 1">
    <rect class="cls-3" width="500" height="500"/>
  </g>
  <g id="Layer_2-2" data-name="Layer 2">
    <g>
      <path class="cls-1" d="m325.06,111.87c-.47-2.55-2.27-3.95-4.83-3.82-2.37.13-3.67,1.76-4.02,4.04-.2,1.29-.18,2.62-.22,3.94-.16,6.03-.31,12.07-.46,18.1-.76,29.71-4.23,59.3-10.45,88.36-5.01,23.4-11.19,46.46-21.8,67.97-2.97,6.02-6.57,11.89-10.76,17.13-6.53,8.16-13.18,7.96-19.31-.56-3.47-4.82-6.28-10.3-8.4-15.86-10.37-27.26-14.93-55.92-18.91-84.58-3.88-27.93-6.93-55.99-7.85-84.22-.21-6.58-4.07-10.71-10.35-12.48-6.32-1.78-12.62-1.52-19-.37-7.87,1.43-10.06,3.38-11.95,11.2-2.64,10.93-2.38,22.04-1.78,33.12,1.46,27.1,5.79,53.79,11.83,80.24,4.51,19.76,11.32,38.61,21.36,56.19,8.22,14.39,18.29,27.16,34.05,34.39l3.58,1.31c3.59,1.31,7.44,1.73,11.23,1.24l1.57-.2c1.45-.19,2.86-.58,4.2-1.14,6.49-2.7,12.06-6.11,16.61-11.09,6.27-6.87,11.16-14.68,15.16-23,8.36-17.37,13.83-35.75,17.92-54.51,4.36-20.03,7.44-40.26,9.44-60.71,1.93-19.68,3.18-39.34,3.46-59.09.03-1.87,0-3.78-.34-5.61Zm-92.8,194.47c-9.3-9.11-15.38-20.33-20.46-32.12-11.09-25.71-17.26-52.77-21.76-80.28-3.26-19.89-5.2-39.88-4.78-60.04.1-4.63.84-9.25,1.26-13.66,5.93-2.77,11.36-2.54,16.75-1.87,3.38.42,5.01,2.58,5.24,6.21.8,12.94,1.69,25.88,2.86,38.79,2.59,28.65,6.24,57.15,12.4,85.29,3.58,16.35,7.6,32.59,14.62,47.85,3.11,6.77,7.23,13.08,11.07,19.93-6.91-1.48-12.34-5.34-17.2-10.11Z"/>
      <g>
        <path d="m259.5,382.12c.7,4.48,2.89,7.32,6.45,9.83.39-7.69-.08-8.45-6.45-9.83Z"/>
        <path d="m221.72,369.35c7.95.25,9.47-.93,8.99-6.59-3.68.95-6.6,2.7-8.99,6.59Z"/>
        <path d="m286.52,373.88c-2.53-2.07-4.32-3.54-6.51-5.33-1.69,1.09-3.23,2.09-5.51,3.56,4.22,2,7.32,3.17,12.03,1.77Z"/>
        <path d="m244.74,383.42c-1.15-1.67-2.17-3.17-3.56-5.18-2.58,3.94-3.05,7.11-1.82,11.66,2.08-2.51,3.56-4.3,5.38-6.49Z"/>
        <path d="m234.81,345.01c-3.8-2.93-6.9-3.25-11.41-1.75,2.58,1.95,4.41,3.34,6.48,4.92,1.55-1,2.88-1.85,4.93-3.17Z"/>
        <path d="m278.26,353.24c5.66-.24,8.5-2.49,8.13-6.32-2.18.47-4.33.93-6.69,1.44-.51,1.71-.95,3.22-1.45,4.87Z"/>
        <path class="cls-2" d="m286.79,362.45c-3.9-3.76-10.02-3.1-12.19-8.17,2.03-5.23,4-10.31,6.4-16.5-5.18,1.92-8.98,3.33-13.07,4.85-4.43-4.53-6.78-9.05-8.22-14.8l-.18-.68c-1.9,4.72-4.83,8.26-7.96,11.49-6.11-.86-10.7-5.1-17.06-5.36,1.69,4.48,3.13,8.27,4.62,12.22-4.47,4.69-10.78,5.49-16.43,9,4.5,2.4,8.35,4.45,12.91,6.87-2.26,5.76-4.32,11.02-6.38,16.27.32.29.63.58.95.86,3.76-1.41,7.52-2.82,11.66-4.38,5.15,4,5.46,10.99,9.14,16.5,2.46-4.72,4.55-8.75,6.73-12.93,6.09,2.29,11.36,4.27,17.88,6.73-2-5.23-3.44-9.01-4.89-12.81,4.03-5.3,10.84-5.63,16.1-9.17Zm-20.59,6.85c1.5,2.37,2.12,5.3,3.12,7.99-.37.34-.73.67-1.1,1.01-3.11-1.32-6.21-2.65-8.53-3.63-1.98-3.46.29-7.5-4.61-9.57.74,6.21.27,11.67-3.61,16.58-3.52-1.83-3.33-5.63-5.04-8.14,1.25-3.59,5.9-5.31,4.67-10.49-2.61,2.49-4.57,4.97-7.09,6.59-2.4,1.55-5.38,2.2-8.11,3.25-.33-.29-.66-.59-.98-.88,1.28-3.1,2.56-6.2,3.56-8.62,3.45-1.9,7.42.16,9.58-4.26-3.2-.21-6.1-.08-8.83-.69-2.63-.58-5.08-1.93-7.61-2.95-.02-.47-.04-.95-.05-1.43,2.85-1.41,5.69-2.83,7.94-3.94,4.26.8,5.6,6.25,10.26,4.47-2.47-3.01-4.99-5.65-6.95-8.65-1.23-1.89-1.6-4.34-2.36-6.54l.87-.96c3.11,1.34,6.22,2.68,8.78,3.79,1.68,3.46-.52,7.74,4.37,9.5.6-5.92-.93-12.07,4.64-16.95,1.52,2.85,2.94,5.51,4.11,7.73.01,4.46-6.16,5.49-4.22,10.66,2.22-2.09,4.06-4.41,6.43-5.87,2.47-1.51,5.45-2.19,8.31-3.27.62,6.22-1.94,9.77-7,10.6-1.6.26-3.11,1.09-4.57,2.28,5.22,1.8,11.03.41,15.65,4.83-1.24,3.82-5.35,3.4-7.99,5.15-3.75-1.36-5.08-5.79-9.93-4.51,2.3,2.46,4.72,4.42,6.29,6.91Z"/>
        <path class="cls-2" d="m259.5,382.12c6.37,1.39,6.84,2.14,6.45,9.83-3.56-2.52-5.75-5.35-6.45-9.83Z"/>
        <path class="cls-2" d="m221.72,369.35c2.4-3.89,5.32-5.64,8.99-6.59.48,5.66-1.04,6.84-8.99,6.59Z"/>
        <path class="cls-2" d="m286.52,373.88c-4.7,1.4-7.81.23-12.03-1.77,2.28-1.47,3.83-2.47,5.51-3.56,2.19,1.79,3.98,3.26,6.51,5.33Z"/>
        <path class="cls-2" d="m244.74,383.42c-1.81,2.19-3.3,3.98-5.38,6.49-1.22-4.55-.76-7.73,1.82-11.66,1.38,2.01,2.41,3.51,3.56,5.18Z"/>
        <path class="cls-2" d="m245.24,334.72c-.37-2.82-.67-5.12-1.09-8.35,4.16,2.2,6.18,4.7,7.3,9.28-2.41-.36-4.21-.62-6.21-.92Z"/>
        <path class="cls-2" d="m267.8,336.59c-.37-2.82-.67-5.12-1.09-8.35,4.16,2.2,6.18,4.7,7.3,9.28-2.41-.36-4.21-.62-6.21-.92Z"/>
        <path class="cls-2" d="m234.81,345.01c-2.05,1.32-3.37,2.17-4.93,3.17-2.08-1.58-3.91-2.96-6.48-4.92,4.51-1.5,7.61-1.18,11.41,1.75Z"/>
        <path class="cls-2" d="m278.26,353.24c.49-1.66.94-3.16,1.45-4.87,2.36-.51,4.51-.97,6.69-1.44.36,3.83-2.47,6.08-8.13,6.32Z"/>
        <path class="cls-2" d="m250,350.72s-2.94-.99-3.21-3.63-1.54-2.6-2.09-2.88,3.19.03,4,2.16c.81,2.14.18,2.9,1.3,4.34Z"/>
        <path class="cls-2" d="m245.87,357.14s-2.88,1.14-4.79-.7c-1.91-1.84-2.86-.99-3.45-.85s2.45-2.04,4.45-.93,2.01,2.1,3.79,2.48Z"/>
        <path class="cls-2" d="m247.51,363.47s-1.05,2.91-3.7,3.13c-2.64.22-2.64,1.48-2.93,2.02s.1-3.19,2.25-3.95c2.15-.77,2.9-.11,4.37-1.2Z"/>
        <path class="cls-2" d="m253.14,366.25s1.68,2.61.24,4.84c-1.43,2.23-.42,3-.17,3.55s-2.47-2.01-1.77-4.19c.7-2.18,1.67-2.37,1.7-4.2Z"/>
        <path class="cls-2" d="m259.5,365.27s2.94.97,3.23,3.61c.29,2.64,1.56,2.6,2.1,2.87s-3.19-.01-4.01-2.14c-.83-2.13-.2-2.9-1.32-4.33Z"/>
        <path class="cls-2" d="m263.38,360.39s2.78-1.37,4.84.3,2.93.76,3.51.57-2.28,2.23-4.36,1.29c-2.08-.94-2.17-1.92-3.98-2.16Z"/>
        <path class="cls-2" d="m262.13,353.72s1.28-2.82,3.93-2.83,2.75-1.27,3.08-1.78-.35,3.17-2.56,3.76c-2.21.59-2.9-.12-4.45.85Z"/>
        <path class="cls-2" d="m259.16,342.36s1.13,2.88-.71,4.79-1,2.86-.86,3.45-2.03-2.46-.91-4.46,2.1-2,2.49-3.78Z"/>
      </g>
    </g>
  </g>
</svg>