<?xml version="1.0" encoding="UTF-8"?>
<svg id="Layer_2" data-name="Layer 2" xmlns="http://www.w3.org/2000/svg" viewBox="0 0 88.25 33.84">
  <defs>
    <style>
      .cls-1, .cls-2 {
        fill: #fff;
      }

      .cls-3 {
        fill: #e8ae52;
      }

      .cls-2 {
        font-family: MyriadPro-Regular, 'Myriad Pro';
        font-size: 7.94px;
      }

      .cls-4 {
        letter-spacing: .12em;
      }

      .cls-5 {
        letter-spacing: .11em;
      }

      .cls-6 {
        letter-spacing: .11em;
      }
    </style>
  </defs>
  <g id="Layer_2-2" data-name="Layer 2">
    <g>
      <g>
        <path d="m10.12,32.67c.08.53.34.87.77,1.17.05-.92,0-1.01-.77-1.17Z"/>
        <path d="m5.62,31.14c.95.03,1.13-.11,1.07-.79-.44.11-.79.32-1.07.79Z"/>
        <path d="m13.34,31.68c-.3-.25-.51-.42-.78-.64-.2.13-.39.25-.66.42.5.24.87.38,1.43.21Z"/>
        <path d="m8.36,32.82c-.14-.2-.26-.38-.42-.62-.31.47-.36.85-.22,1.39.25-.3.42-.51.64-.77Z"/>
        <path d="m7.18,28.24c-.45-.35-.82-.39-1.36-.21.31.23.53.4.77.59.19-.12.34-.22.59-.38Z"/>
        <path d="m12.36,29.22c.67-.03,1.01-.3.97-.75-.26.06-.52.11-.8.17-.06.2-.11.38-.17.58Z"/>
        <path class="cls-3" d="m13.37,30.32c-.46-.45-1.19-.37-1.45-.97.24-.62.48-1.23.76-1.97-.62.23-1.07.4-1.56.58-.53-.54-.81-1.08-.98-1.76l-.02-.08c-.23.56-.58.98-.95,1.37-.73-.1-1.28-.61-2.03-.64.2.53.37.99.55,1.46-.53.56-1.28.65-1.96,1.07.54.29,1,.53,1.54.82-.27.69-.51,1.31-.76,1.94.04.03.08.07.11.1.45-.17.9-.34,1.39-.52.61.48.65,1.31,1.09,1.97.29-.56.54-1.04.8-1.54.73.27,1.35.51,2.13.8-.24-.62-.41-1.07-.58-1.53.48-.63,1.29-.67,1.92-1.09Zm-2.45.82c.18.28.25.63.37.95-.04.04-.09.08-.13.12-.37-.16-.74-.32-1.02-.43-.24-.41.03-.89-.55-1.14.09.74.03,1.39-.43,1.98-.42-.22-.4-.67-.6-.97.15-.43.7-.63.56-1.25-.31.3-.55.59-.84.79-.29.18-.64.26-.97.39l-.12-.1c.15-.37.31-.74.42-1.03.41-.23.88.02,1.14-.51-.38-.03-.73,0-1.05-.08-.31-.07-.61-.23-.91-.35,0-.06,0-.11,0-.17.34-.17.68-.34.95-.47.51.1.67.74,1.22.53-.29-.36-.59-.67-.83-1.03-.15-.23-.19-.52-.28-.78.03-.04.07-.08.1-.11.37.16.74.32,1.05.45.2.41-.06.92.52,1.13.07-.71-.11-1.44.55-2.02.18.34.35.66.49.92,0,.53-.73.65-.5,1.27.26-.25.48-.53.77-.7.29-.18.65-.26.99-.39.07.74-.23,1.16-.83,1.26-.19.03-.37.13-.54.27.62.21,1.31.05,1.87.58-.15.46-.64.41-.95.61-.45-.16-.61-.69-1.18-.54.27.29.56.53.75.82Z"/>
        <path class="cls-3" d="m10.12,32.67c.76.17.81.26.77,1.17-.42-.3-.69-.64-.77-1.17Z"/>
        <path class="cls-3" d="m5.62,31.14c.29-.46.63-.67,1.07-.79.06.67-.12.81-1.07.79Z"/>
        <path class="cls-3" d="m13.34,31.68c-.56.17-.93.03-1.43-.21.27-.18.46-.29.66-.42.26.21.47.39.78.64Z"/>
        <path class="cls-3" d="m8.36,32.82c-.22.26-.39.47-.64.77-.15-.54-.09-.92.22-1.39.16.24.29.42.42.62Z"/>
        <path class="cls-3" d="m8.42,27.02c-.04-.34-.08-.61-.13-1,.5.26.74.56.87,1.11-.29-.04-.5-.07-.74-.11Z"/>
        <path class="cls-3" d="m11.11,27.24c-.04-.34-.08-.61-.13-1,.5.26.74.56.87,1.11-.29-.04-.5-.07-.74-.11Z"/>
        <path class="cls-3" d="m7.18,28.24c-.24.16-.4.26-.59.38-.25-.19-.47-.35-.77-.59.54-.18.91-.14,1.36.21Z"/>
        <path class="cls-3" d="m12.36,29.22c.06-.2.11-.38.17-.58.28-.06.54-.12.8-.17.04.46-.29.72-.97.75Z"/>
        <path class="cls-3" d="m8.99,28.92s-.35-.12-.38-.43-.18-.31-.25-.34c-.06-.03.38,0,.48.26.1.25.02.35.15.52Z"/>
        <path class="cls-3" d="m8.5,29.69s-.34.14-.57-.08c-.23-.22-.34-.12-.41-.1-.07.02.29-.24.53-.11.24.13.24.25.45.3Z"/>
        <path class="cls-3" d="m8.69,30.44s-.13.35-.44.37c-.32.03-.31.18-.35.24-.03.06.01-.38.27-.47s.35-.01.52-.14Z"/>
        <path class="cls-3" d="m9.36,30.77s.2.31.03.58c-.17.27-.05.36-.02.42s-.29-.24-.21-.5c.08-.26.2-.28.2-.5Z"/>
        <path class="cls-3" d="m10.12,30.66s.35.12.39.43.19.31.25.34-.38,0-.48-.26c-.1-.25-.02-.35-.16-.52Z"/>
        <path class="cls-3" d="m10.58,30.08s.33-.16.58.04c.25.2.35.09.42.07s-.27.27-.52.15-.26-.23-.47-.26Z"/>
        <path class="cls-3" d="m10.43,29.28s.15-.34.47-.34.33-.15.37-.21c.04-.06-.04.38-.31.45-.26.07-.35-.01-.53.1Z"/>
        <path class="cls-3" d="m10.08,27.93s.13.34-.09.57c-.22.23-.12.34-.1.41s-.24-.29-.11-.53c.13-.24.25-.24.3-.45Z"/>
      </g>
      <g>
        <path class="cls-1" d="m17.93.46c-.06-.3-.27-.47-.58-.45-.28.02-.44.21-.48.48-.02.15-.02.31-.03.47-.02.72-.04,1.44-.06,2.16-.09,3.54-.5,7.07-1.25,10.53-.6,2.79-1.33,5.54-2.6,8.1-.35.72-.78,1.42-1.28,2.04-.78.97-1.57.95-2.3-.07-.41-.57-.75-1.23-1-1.89-1.24-3.25-1.78-6.66-2.25-10.08-.46-3.33-.83-6.67-.94-10.04-.03-.78-.49-1.28-1.23-1.49C3.19,0,2.44.04,1.68.18.75.35.48.58.26,1.51-.06,2.81-.02,4.14.05,5.46c.17,3.23.69,6.41,1.41,9.56.54,2.35,1.35,4.6,2.55,6.7.98,1.72,2.18,3.24,4.06,4.1l.43.16c.43.16.89.21,1.34.15l.19-.02c.17-.02.34-.07.5-.14.77-.32,1.44-.73,1.98-1.32.75-.82,1.33-1.75,1.81-2.74,1-2.07,1.65-4.26,2.14-6.5.52-2.39.89-4.8,1.13-7.24.23-2.35.38-4.69.41-7.04,0-.22,0-.45-.04-.67ZM6.87,23.63c-1.11-1.09-1.83-2.42-2.44-3.83-1.32-3.06-2.06-6.29-2.59-9.57-.39-2.37-.62-4.75-.57-7.16.01-.55.1-1.1.15-1.63.71-.33,1.35-.3,2-.22.4.05.6.31.62.74.1,1.54.2,3.08.34,4.62.31,3.41.74,6.81,1.48,10.16.43,1.95.91,3.88,1.74,5.7.37.81.86,1.56,1.32,2.38-.82-.18-1.47-.64-2.05-1.2Zm45.74-12.57c-.58-.41-1.1-.26-1.54.09-.84.66-1.44,1.53-1.85,2.51-.1.24-.1.53-.1.79-.01.99.01,1.97,0,2.96-.03,1.32-1.14,2.54-2.4,2.66-.11.01-.22-.01-.4-.02-.02-.2-.07-.39-.07-.58,0-4.41,0-8.83,0-13.24,0-1.21.28-2.35,1.03-3.34.46-.61,1.01-1.08,1.73-1.32,1.2-.4,2.43-.16,3.72-.22-.18.82-.69,1.25-1.27,1.56-.36.19-.81.24-1.22.33-.34.08-.69.14-1.08.21v8.73c.2-.28.33-.47.45-.66.82-1.24,1.73-2.39,3-3.22.51-.33,1.06-.47,1.66-.37.54.09.93.37,1.04.91.1.45.16.93.16,1.39.02,2.49,0,4.97,0,7.46,0,.26.03.52.05.78.75.26,1.12-.45,1.77-.56-.07.19-.09.34-.17.45-.66.94-1.43,1.74-2.71,1.72-.9-.01-1.44-.42-1.63-1.3-.09-.41-.13-.84-.13-1.27-.01-1.81,0-3.63,0-5.44,0-.35-.04-.71-.05-1.03Zm18.56-2.93v10.4c.84.28,1.29-.49,1.92-.6.03.06.08.11.06.13-.47.97-1.22,1.64-2.2,2.05-1.07.45-2.48-.9-2.46-1.94.01-.49,0-.98,0-1.66-.32.31-.53.51-.74.71-.79.73-1.57,1.46-2.37,2.19-.13.12-.28.23-.43.32-1.2.79-2.36.54-3.1-.68-.38-.62-.63-1.28-.68-2.02-.1-1.39-.07-2.77.38-4.12.92-2.79,2.89-4.38,5.74-4.81,1.18-.18,2.41-.07,3.62-.08.06,0,.12.05.25.1Zm-2.71.81c-1.02.03-1.9.25-2.62.89-1.58,1.39-2.15,3.14-1.8,5.2.2,1.18,1.06,1.71,2.22,1.36.85-.26,1.55-.78,2.21-1.37v-6.07Zm8.44,1.29c-.44.2-.91.41-1.38.63-.03-.04-.06-.07-.09-.11.16-.2.3-.42.48-.59.64-.62,1.25-1.29,1.95-1.83.88-.67,1.74-.29,1.9.81.11.73.12,1.47.17,2.21.01.24,0,.47.11.74.14-.19.28-.39.42-.57.65-.82,1.28-1.67,1.97-2.46.46-.53,1.06-.92,1.78-1.01,1.51-.18,1.86.34,2.11,1.54.09.43.09.89.09,1.34,0,2.29,0,4.57,0,6.86,0,.28.05.57.07.83.78.31,1.13-.4,1.74-.63-.06.19-.07.32-.13.41-.38.6-.87,1.09-1.49,1.43-.31.17-.66.29-1.01.35-.83.13-1.77-.34-1.84-1.32-.02-.31-.08-.62-.08-.93,0-1.86,0-3.72,0-5.58,0-.29-.01-.58-.05-.87-.1-.66-.56-.93-1.15-.63-.35.18-.68.44-.95.74-.48.53-.93,1.1-1.32,1.69-.17.26-.27.62-.28.93-.03,1.21-.06,2.42,0,3.63.04.85-.31,1.41-.99,1.83-.5.31-1.02.54-1.7.48-.02-.32-.06-.6-.06-.89,0-2.73,0-5.47,0-8.2,0-.28.08-.59-.3-.83Zm-43.63,9.89c-.01-.33-.04-.59-.04-.85,0-2.6,0-5.2,0-7.8,0-.34.11-.77-.29-.97-.37-.18-.68.07-.98.27-.11.07-.22.13-.44.13.06-.14.09-.32.19-.43.68-.74,1.37-1.47,2.06-2.2.08-.08.18-.14.28-.19.83-.47,1.61-.12,1.73.82.1.78.13,1.56.18,2.34.01.22,0,.44.13.74.16-.19.32-.38.47-.58.53-.7.99-1.45,1.58-2.08.46-.5,1.02-.96,1.63-1.26,1.12-.55,2.24-.07,2.56,1.01.18.6.19,1.24-.21,1.74-.67.86-1.4,1.68-2.12,2.5-.2.22-.44.41-.66.61-.04-.03-.09-.06-.13-.08.06-.27.15-.55.18-.82.06-.46.13-.93.12-1.4,0-.39-.15-.76-.54-.94-.42-.18-.76.04-1.02.32-.5.54-.94,1.14-1.44,1.68-.46.5-.59,1.05-.57,1.72.04,1.23,0,2.47.02,3.7,0,.4-.11.7-.42.93-.57.43-1.1.93-1.84,1.06-.11.02-.22,0-.43,0Zm-9.31-10.62c-.82-.17-1.18.52-1.82.75.03-.18.02-.32.08-.4.52-.68,1.1-1.3,1.87-1.7.27-.14.59-.23.89-.25.88-.08,1.41.31,1.61,1.17.1.43.12.89.13,1.33.01,2.31,0,4.61,0,6.92,0,.27,0,.54.07.8.14.55.44.67.95.39.14-.07.25-.19.38-.27.12-.08.24-.15.41-.25-.34,1.25-1.77,2.31-2.91,2.21-.88-.08-1.51-.82-1.58-1.87-.03-.45-.02-.9-.02-1.34,0-2.19,0-4.39,0-6.58,0-.28-.03-.57-.06-.9Zm-.5-5.77c.07-1.18.51-1.74,1.54-1.9,1-.15,1.67.18,2.07,1.08.38.86.09,1.85-.7,2.37-.35.23-.75.39-1.15.52-.68.21-1.19-.03-1.45-.7-.16-.43-.22-.91-.32-1.36Z"/>
        <text class="cls-2" transform="translate(35.26 30.5)"><tspan class="cls-6" x="0" y="0">J</tspan><tspan class="cls-4" x="3.79" y="0">E</tspan><tspan class="cls-5" x="8.62" y="0">WELS</tspan></text>
      </g>
    </g>
  </g>
</svg>