<?xml version="1.0" encoding="UTF-8"?>
<svg id="Layer_2" data-name="Layer 2" xmlns="http://www.w3.org/2000/svg" viewBox="0 0 740.49 283.91">
  <defs>
    <style>
      .cls-1, .cls-2 {
        fill: #fff;
      }

      .cls-3 {
        fill: #e8ad51;
      }

      .cls-2 {
        font-family: MyriadPro-Regular, 'Myriad Pro';
        font-size: 66.58px;
        letter-spacing: .11em;
      }
    </style>
  </defs>
  <g id="Layer_2-2" data-name="Layer 2">
    <g>
      <path class="cls-1" d="m150.48,3.83c-.47-2.55-2.27-3.95-4.83-3.82-2.37.13-3.67,1.76-4.02,4.04-.2,1.29-.18,2.62-.22,3.94-.16,6.03-.31,12.07-.46,18.1-.76,29.71-4.23,59.3-10.45,88.36-5.01,23.4-11.19,46.46-21.8,67.97-2.97,6.02-6.57,11.89-10.76,17.13-6.53,8.16-13.18,7.96-19.31-.56-3.47-4.82-6.28-10.3-8.4-15.86-10.37-27.26-14.93-55.92-18.91-84.58-3.88-27.93-6.93-55.99-7.85-84.22-.21-6.58-4.07-10.71-10.35-12.48C26.8.07,20.5.32,14.13,1.48,6.25,2.91,4.07,4.87,2.18,12.68-.47,23.61-.2,34.73.4,45.81c1.46,27.1,5.79,53.79,11.83,80.24,4.51,19.76,11.32,38.61,21.36,56.19,8.22,14.39,18.29,27.16,34.05,34.39l3.58,1.31c3.59,1.31,7.44,1.73,11.23,1.24l1.57-.2c1.45-.19,2.86-.58,4.2-1.14,6.49-2.7,12.06-6.11,16.61-11.09,6.27-6.87,11.16-14.68,15.16-23,8.36-17.37,13.83-35.75,17.92-54.51,4.36-20.03,7.44-40.26,9.44-60.71,1.93-19.68,3.18-39.34,3.46-59.09.03-1.87,0-3.78-.34-5.61ZM57.68,198.29c-9.3-9.11-15.38-20.33-20.46-32.12-11.09-25.71-17.26-52.77-21.76-80.28-3.26-19.89-5.2-39.88-4.78-60.04.1-4.63.84-9.25,1.26-13.66,5.93-2.77,11.36-2.54,16.75-1.87,3.38.42,5.01,2.58,5.24,6.21.8,12.94,1.69,25.88,2.86,38.79,2.59,28.65,6.24,57.15,12.4,85.29,3.58,16.35,7.6,32.59,14.62,47.85,3.11,6.77,7.23,13.08,11.07,19.93-6.91-1.48-12.34-5.34-17.2-10.11Z"/>
      <path class="cls-1" d="m441.43,92.79c-4.9-3.48-9.24-2.14-12.9.75-7.04,5.57-12.12,12.81-15.55,21.09-.83,1.99-.85,4.41-.88,6.63-.1,8.27.09,16.55-.08,24.82-.23,11.08-9.53,21.28-20.15,22.35-.9.09-1.83-.09-3.32-.17-.2-1.68-.55-3.27-.55-4.87-.02-37.04-.06-74.07.03-111.11.03-10.16,2.36-19.72,8.61-28.05,3.82-5.09,8.46-9.09,14.54-11.12,10.07-3.36,20.37-1.38,31.25-1.86-1.5,6.92-5.82,10.47-10.69,13.09-3.03,1.63-6.76,2-10.2,2.8-2.87.67-5.78,1.15-9.03,1.78v73.28c1.64-2.39,2.73-3.94,3.78-5.52,6.89-10.41,14.55-20.09,25.18-27.01,4.28-2.79,8.86-3.96,13.94-3.1,4.51.77,7.78,3.14,8.76,7.64.83,3.82,1.35,7.78,1.37,11.69.13,20.87.05,41.74.08,62.6,0,2.19.26,4.39.4,6.53,6.26,2.2,9.36-3.81,14.84-4.67-.57,1.59-.75,2.87-1.41,3.8-5.57,7.91-11.96,14.62-22.7,14.45-7.52-.12-12.08-3.56-13.71-10.89-.77-3.45-1.08-7.07-1.11-10.62-.11-15.23-.02-30.46-.06-45.68,0-2.97-.31-5.95-.46-8.65Z"/>
      <path class="cls-1" d="m597.15,68.18v87.24c7.05,2.33,10.8-4.14,16.14-5.07.25.51.63.93.54,1.13-3.93,8.11-10.22,13.72-18.48,17.17-8.96,3.74-20.82-7.53-20.61-16.25.1-4.12.02-8.24.02-13.95-2.68,2.58-4.42,4.31-6.21,5.98-6.6,6.13-13.21,12.26-19.85,18.34-1.1,1.01-2.34,1.89-3.59,2.72-10.05,6.63-19.81,4.55-26.03-5.68-3.15-5.18-5.28-10.77-5.73-16.92-.85-11.7-.56-23.27,3.18-34.55,7.75-23.38,24.24-36.71,48.15-40.32,9.94-1.5,20.24-.58,30.38-.71.5,0,1.01.41,2.09.88Zm-22.7,6.76c-8.58.25-15.94,2.11-22,7.43-13.28,11.65-18.06,26.36-15.13,43.65,1.68,9.94,8.92,14.34,18.59,11.38,7.17-2.2,13.03-6.53,18.54-11.53v-50.93Z"/>
      <path class="cls-1" d="m645.3,85.73c-3.66,1.67-7.62,3.48-11.57,5.28-.26-.3-.52-.61-.78-.91,1.32-1.67,2.49-3.5,4-4.98,5.36-5.24,10.47-10.85,16.38-15.39,7.35-5.65,14.62-2.4,15.98,6.84.9,6.11,1,12.35,1.39,18.53.12,1.98.02,3.97.94,6.2,1.18-1.6,2.32-3.24,3.56-4.8,5.48-6.91,10.77-13.98,16.57-20.62,3.88-4.44,8.86-7.74,14.92-8.45,12.66-1.49,15.6,2.89,17.69,12.93.76,3.64.78,7.48.79,11.22.07,19.18,0,38.36.05,57.54,0,2.37.42,4.75.63,6.95,6.57,2.56,9.45-3.36,14.64-5.32-.47,1.61-.55,2.67-1.05,3.47-3.15,5.03-7.33,9.12-12.47,12.01-2.56,1.44-5.54,2.47-8.44,2.92-6.96,1.09-14.89-2.82-15.47-11.08-.18-2.61-.66-5.22-.67-7.83-.07-15.61-.01-31.22-.05-46.82,0-2.44-.1-4.9-.45-7.3-.8-5.5-4.74-7.8-9.69-5.25-2.94,1.52-5.72,3.72-7.93,6.19-4,4.47-7.77,9.21-11.12,14.18-1.46,2.17-2.25,5.18-2.32,7.83-.26,10.15-.49,20.33.04,30.45.38,7.16-2.59,11.83-8.27,15.38-4.18,2.61-8.55,4.52-14.25,4.05-.18-2.7-.47-5.06-.47-7.43-.03-22.94,0-45.88-.04-68.82,0-2.33.68-4.97-2.54-7.01Z"/>
      <path class="cls-1" d="m279.21,168.74c-.12-2.73-.31-4.94-.31-7.15-.02-21.82.02-43.63-.04-65.45,0-2.89.96-6.44-2.41-8.11-3.12-1.54-5.72.61-8.23,2.26-.91.6-1.88,1.1-3.66,1.12.51-1.21.73-2.67,1.56-3.58,5.68-6.22,11.48-12.34,17.28-18.45.63-.67,1.49-1.15,2.31-1.61,7-3.96,13.55-.97,14.53,6.92.81,6.52,1.07,13.1,1.51,19.66.12,1.85.02,3.72,1.07,6.23,1.31-1.61,2.66-3.19,3.91-4.84,4.41-5.85,8.34-12.14,13.3-17.48,3.88-4.18,8.6-8.06,13.68-10.55,9.37-4.59,18.79-.58,21.5,8.47,1.5,5,1.56,10.37-1.74,14.62-5.61,7.25-11.75,14.09-17.78,21.01-1.65,1.89-3.69,3.43-5.55,5.12-.37-.23-.74-.46-1.11-.7.53-2.3,1.24-4.58,1.55-6.91.51-3.89,1.06-7.82,1.03-11.73-.02-3.27-1.24-6.4-4.57-7.85-3.49-1.51-6.41.35-8.57,2.67-4.22,4.53-7.85,9.59-12.05,14.14-3.86,4.18-4.95,8.84-4.76,14.41.35,10.33,0,20.69.16,31.03.05,3.32-.93,5.87-3.54,7.81-4.81,3.57-9.24,7.82-15.47,8.89-.89.15-1.82.02-3.61.02Z"/>
      <path class="cls-1" d="m201.09,79.59c-6.91-1.43-9.91,4.33-15.31,6.32.26-1.5.13-2.66.64-3.32,4.37-5.69,9.24-10.94,15.69-14.29,2.27-1.18,4.94-1.9,7.49-2.12,7.35-.65,11.86,2.57,13.49,9.83.82,3.62,1.03,7.44,1.05,11.17.1,19.35.03,38.69.07,58.04,0,2.23.07,4.54.63,6.68,1.21,4.63,3.71,5.59,7.97,3.27,1.14-.62,2.11-1.55,3.2-2.28,1-.67,2.04-1.26,3.46-2.12-2.82,10.53-14.83,19.39-24.43,18.55-7.34-.64-12.71-6.88-13.3-15.7-.25-3.74-.16-7.51-.16-11.27-.02-18.41,0-36.82-.03-55.22,0-2.39-.29-4.78-.47-7.54Z"/>
      <path class="cls-1" d="m196.88,31.19c.58-9.91,4.24-14.59,12.95-15.94,8.38-1.3,14.04,1.47,17.4,9.03,3.22,7.24.74,15.55-5.87,19.88-2.93,1.92-6.32,3.29-9.69,4.35-5.71,1.79-10.02-.24-12.13-5.91-1.35-3.63-1.81-7.6-2.67-11.41Z"/>
      <g>
        <path d="m84.91,274.08c.7,4.48,2.89,7.32,6.45,9.83.39-7.69-.08-8.45-6.45-9.83Z"/>
        <path d="m47.13,261.31c7.95.25,9.47-.93,8.99-6.59-3.68.95-6.6,2.7-8.99,6.59Z"/>
        <path d="m111.94,265.84c-2.53-2.07-4.32-3.54-6.51-5.33-1.69,1.09-3.23,2.09-5.51,3.56,4.22,2,7.32,3.17,12.03,1.77Z"/>
        <path d="m70.15,275.38c-1.15-1.67-2.17-3.17-3.56-5.18-2.58,3.94-3.05,7.11-1.82,11.66,2.08-2.51,3.56-4.3,5.38-6.49Z"/>
        <path d="m60.22,236.96c-3.8-2.93-6.9-3.25-11.41-1.75,2.58,1.95,4.41,3.34,6.48,4.92,1.55-1,2.88-1.85,4.93-3.17Z"/>
        <path d="m103.67,245.2c5.66-.24,8.5-2.49,8.13-6.32-2.18.47-4.33.93-6.69,1.44-.51,1.71-.95,3.22-1.45,4.87Z"/>
        <path class="cls-3" d="m112.2,254.4c-3.9-3.76-10.02-3.1-12.19-8.17,2.03-5.23,4-10.31,6.4-16.5-5.18,1.92-8.98,3.33-13.07,4.85-4.43-4.53-6.78-9.05-8.22-14.8l-.18-.68c-1.9,4.72-4.83,8.26-7.96,11.49-6.11-.86-10.7-5.1-17.06-5.36,1.69,4.48,3.13,8.27,4.62,12.22-4.47,4.69-10.78,5.49-16.43,9,4.5,2.4,8.35,4.45,12.91,6.87-2.26,5.76-4.32,11.02-6.38,16.27.32.29.63.58.95.86,3.76-1.41,7.52-2.82,11.66-4.38,5.15,4,5.46,10.99,9.14,16.5,2.46-4.72,4.55-8.75,6.73-12.93,6.09,2.29,11.36,4.27,17.88,6.73-2-5.23-3.44-9.01-4.89-12.81,4.03-5.3,10.84-5.63,16.1-9.17Zm-20.59,6.85c1.5,2.37,2.12,5.3,3.12,7.99-.37.34-.73.67-1.1,1.01-3.11-1.32-6.21-2.65-8.53-3.63-1.98-3.46.29-7.5-4.61-9.57.74,6.21.27,11.67-3.61,16.58-3.52-1.83-3.33-5.63-5.04-8.14,1.25-3.59,5.9-5.31,4.67-10.49-2.61,2.49-4.57,4.97-7.09,6.59-2.4,1.55-5.38,2.2-8.11,3.25-.33-.29-.66-.59-.98-.88,1.28-3.1,2.56-6.2,3.56-8.62,3.45-1.9,7.42.16,9.58-4.26-3.2-.21-6.1-.08-8.83-.69-2.63-.58-5.08-1.93-7.61-2.95-.02-.47-.04-.95-.05-1.43,2.85-1.41,5.69-2.83,7.94-3.94,4.26.8,5.6,6.25,10.26,4.47-2.47-3.01-4.99-5.65-6.95-8.65-1.23-1.89-1.6-4.34-2.36-6.54l.87-.96c3.11,1.34,6.22,2.68,8.78,3.79,1.68,3.46-.52,7.74,4.37,9.5.6-5.92-.93-12.07,4.64-16.95,1.52,2.85,2.94,5.51,4.11,7.73.01,4.46-6.16,5.49-4.22,10.66,2.22-2.09,4.06-4.41,6.43-5.87,2.47-1.51,5.45-2.19,8.31-3.27.62,6.22-1.94,9.77-7,10.6-1.6.26-3.11,1.09-4.57,2.28,5.22,1.8,11.03.41,15.65,4.83-1.24,3.82-5.35,3.4-7.99,5.15-3.75-1.36-5.08-5.79-9.93-4.51,2.3,2.46,4.72,4.42,6.29,6.91Z"/>
        <path class="cls-3" d="m84.91,274.08c6.37,1.39,6.84,2.14,6.45,9.83-3.56-2.52-5.75-5.35-6.45-9.83Z"/>
        <path class="cls-3" d="m47.13,261.31c2.4-3.89,5.32-5.64,8.99-6.59.48,5.66-1.04,6.84-8.99,6.59Z"/>
        <path class="cls-3" d="m111.94,265.84c-4.7,1.4-7.81.23-12.03-1.77,2.28-1.47,3.83-2.47,5.51-3.56,2.19,1.79,3.98,3.26,6.51,5.33Z"/>
        <path class="cls-3" d="m70.15,275.38c-1.81,2.19-3.3,3.98-5.38,6.49-1.22-4.55-.76-7.73,1.82-11.66,1.38,2.01,2.41,3.51,3.56,5.18Z"/>
        <path class="cls-3" d="m70.66,226.68c-.37-2.82-.67-5.12-1.09-8.35,4.16,2.2,6.18,4.7,7.3,9.28-2.41-.36-4.21-.62-6.21-.92Z"/>
        <path class="cls-3" d="m93.21,228.55c-.37-2.82-.67-5.12-1.09-8.35,4.16,2.2,6.18,4.7,7.3,9.28-2.41-.36-4.21-.62-6.21-.92Z"/>
        <path class="cls-3" d="m60.22,236.96c-2.05,1.32-3.37,2.17-4.93,3.17-2.08-1.58-3.91-2.96-6.48-4.92,4.51-1.5,7.61-1.18,11.41,1.75Z"/>
        <path class="cls-3" d="m103.67,245.2c.49-1.66.94-3.16,1.45-4.87,2.36-.51,4.51-.97,6.69-1.44.36,3.83-2.47,6.08-8.13,6.32Z"/>
        <path class="cls-3" d="m75.41,242.68s-2.94-.99-3.21-3.63-1.54-2.6-2.09-2.88,3.19.03,4,2.16.18,2.9,1.3,4.34Z"/>
        <path class="cls-3" d="m71.28,249.1s-2.88,1.14-4.79-.7-2.86-.99-3.45-.85,2.45-2.04,4.45-.93,2.01,2.1,3.79,2.48Z"/>
        <path class="cls-3" d="m72.92,255.43s-1.05,2.91-3.7,3.13c-2.64.22-2.64,1.48-2.93,2.02s.1-3.19,2.25-3.95c2.15-.77,2.9-.11,4.37-1.2Z"/>
        <path class="cls-3" d="m78.55,258.21s1.68,2.61.24,4.84-.42,3-.17,3.55-2.47-2.01-1.77-4.19,1.67-2.37,1.7-4.2Z"/>
        <path class="cls-3" d="m84.91,257.23s2.94.97,3.23,3.61,1.56,2.6,2.1,2.87-3.19-.01-4.01-2.14-.2-2.9-1.32-4.33Z"/>
        <path class="cls-3" d="m88.79,252.35s2.78-1.37,4.84.3c2.06,1.67,2.93.76,3.51.57s-2.28,2.23-4.36,1.29-2.17-1.92-3.98-2.16Z"/>
        <path class="cls-3" d="m87.54,245.68s1.28-2.82,3.93-2.83,2.75-1.27,3.08-1.78-.35,3.17-2.56,3.76-2.9-.12-4.45.85Z"/>
        <path class="cls-3" d="m84.57,234.32s1.13,2.88-.71,4.79-1,2.86-.86,3.45-2.03-2.46-.91-4.46,2.1-2,2.49-3.78Z"/>
      </g>
      <text class="cls-2" transform="translate(295.89 255.95)"><tspan x="0" y="0">CHAINS</tspan></text>
    </g>
  </g>
</svg>